<svg width="50" height="56" viewBox="0 0 50 56" fill="none" xmlns="http://www.w3.org/2000/svg">
<path d="M25 1.78571C25.7143 1.78571 26.4286 1.96429 27.0536 2.32143L46.1607 13.2143C47.4107 13.9286 48.2143 15.2679 48.2143 16.7857V38.5714C48.2143 40 47.4107 41.4286 46.1607 42.1429L27.0536 53.0357C26.4286 53.3929 25.7143 53.5714 25 53.5714C24.2857 53.5714 23.5714 53.3929 22.9464 53.0357L3.83929 42.1429C2.58929 41.4286 1.78571 40.0893 1.78571 38.5714V16.7857C1.78571 15.3571 2.58929 13.9286 3.83929 13.2143L22.9464 2.32143C23.5714 1.96429 24.2857 1.78571 25 1.78571ZM25 0C24.0179 0 22.9464 0.267857 22.0536 0.803571L2.94643 11.6964C1.16071 12.7679 0 14.7321 0 16.7857V38.5714C0 40.7143 1.16071 42.5893 2.94643 43.6607L22.0536 54.5536C22.9464 55.0893 23.9286 55.3571 25 55.3571C25.9821 55.3571 27.0536 55.0893 27.9464 54.5536L47.0536 43.6607C48.9286 42.5893 50 40.625 50 38.5714V16.7857C50 14.6429 48.8393 12.7679 47.0536 11.6964L27.9464 0.803571C27.0536 0.267857 25.9821 0 25 0Z" fill="#009982"/>
<path d="M30.3574 41.0714H19.6431V23.2143H30.3574V41.0714ZM32.1431 21.4286H17.8574V42.8572H32.1431V21.4286Z" fill="#575756"/>
<path d="M28.5714 25.8929H21.4285V25H28.5714V25.8929ZM29.4642 24.1072H20.5356V26.7857H29.4642V24.1072Z" fill="#575756"/>
<path d="M28.5714 29.4643H21.4285V28.5714H28.5714V29.4643ZM29.4642 27.6786H20.5356V30.3572H29.4642V27.6786Z" fill="#575756"/>
<path d="M29.4641 32.1428H28.5713V33.0357H29.4641V32.1428Z" fill="#575756"/>
<path d="M27.6785 32.1428H26.7856V33.0357H27.6785V32.1428Z" fill="#575756"/>
<path d="M25.8929 32.1428H25V33.0357H25.8929V32.1428Z" fill="#575756"/>
<path d="M29.4642 37.5H20.5356V38.3929H29.4642V37.5Z" fill="#575756"/>
<path d="M29.4642 39.2857H20.5356V40.1786H29.4642V39.2857Z" fill="#575756"/>
<path d="M36.5178 20.3571C36.2499 15.9821 32.4999 12.5 27.9463 12.5C25.0892 12.5 22.4999 13.9286 20.8928 16.0714C20.2678 15.8036 19.4642 15.625 18.7499 15.625C18.6606 15.625 18.5713 15.625 18.482 15.625C15.982 15.7143 13.9285 17.6786 13.6606 20C13.6606 20.0893 13.6606 20.1786 13.6606 20.2679C10.5356 21.4286 8.57133 24.375 8.92847 27.6786C9.28561 31.25 12.4999 33.9286 16.2499 33.9286H18.7499V32.1429H16.3392C13.482 32.1429 11.0713 30.1786 10.8035 27.5C10.5356 25.0893 11.9642 22.8571 14.2856 22.0536L15.357 21.6964L15.4463 20.5357C15.4463 20.4464 15.4463 20.4464 15.4463 20.3571C15.6249 18.8393 17.0535 17.5893 18.6606 17.5C18.7499 17.5 18.7499 17.5 18.8392 17.5C19.3749 17.5 19.8213 17.5893 20.2678 17.7679L21.607 18.3929L22.4106 17.2321C23.6606 15.4464 25.8035 14.375 28.0356 14.375C31.607 14.375 34.6428 17.0536 34.8213 20.5357L34.9106 21.6964L35.982 22.1429C38.2142 23.0357 39.6428 25.2679 39.3749 27.6786C39.0178 30.2679 36.6963 32.2321 33.8392 32.2321H31.2499V34.0179H33.7499C37.4999 34.0179 40.6249 31.3393 41.0713 27.8571C41.4285 24.5536 39.5535 21.5179 36.5178 20.3571Z" fill="#575756"/>
</svg>
