<svg width="50" height="56" viewBox="0 0 50 56" fill="none" xmlns="http://www.w3.org/2000/svg">
<path d="M17.4111 31.9642V23.3928L25.0004 19.0178L32.5897 23.3928V31.9642L25.0004 36.3393L17.4111 31.9642Z" fill="#575756"/>
<path d="M34.8214 23.3037V33.3037L26.1606 38.3037V44.4644L40.1785 36.4287V20.2679L34.8214 23.3037Z" fill="#575756"/>
<path d="M16.3391 21.4285L24.9998 16.4285L33.6605 21.4285L39.0177 18.3035L24.9998 10.2678L10.9819 18.3035L16.3391 21.4285Z" fill="#575756"/>
<path d="M23.9284 38.3037L15.1784 33.3037V23.3037L9.82129 20.2679V36.4287L23.9284 44.4644V38.3037Z" fill="#575756"/>
<path d="M25 1.78571C25.7143 1.78571 26.4286 1.96429 27.0536 2.32143L46.1607 13.2143C47.4107 13.9286 48.2143 15.2679 48.2143 16.7857V38.5714C48.2143 40 47.4107 41.4286 46.1607 42.1429L27.0536 53.0357C26.4286 53.3929 25.7143 53.5714 25 53.5714C24.2857 53.5714 23.5714 53.3929 22.9464 53.0357L3.83929 42.1429C2.58929 41.4286 1.78571 40.0893 1.78571 38.5714V16.7857C1.78571 15.3571 2.58929 13.9286 3.83929 13.2143L22.9464 2.32143C23.5714 1.96429 24.2857 1.78571 25 1.78571ZM25 0C24.0179 0 22.9464 0.267857 22.0536 0.803572L2.94643 11.6964C1.16071 12.7679 0 14.7321 0 16.7857V38.5714C0 40.7143 1.16071 42.5893 2.94643 43.6607L22.0536 54.5536C22.9464 55.0893 23.9286 55.3572 25 55.3572C25.9821 55.3572 27.0536 55.0893 27.9464 54.5536L47.0536 43.6607C48.9286 42.5893 50 40.625 50 38.5714V16.7857C50 14.6429 48.8393 12.7679 47.0536 11.6964L27.9464 0.803572C27.0536 0.267857 25.9821 0 25 0Z" fill="#009982"/>
</svg>
