<svg width="50" height="56" viewBox="0 0 50 56" fill="none" xmlns="http://www.w3.org/2000/svg">
<path d="M25 1.78571C25.7143 1.78571 26.4286 1.96429 27.0536 2.32143L46.1607 13.2143C47.4107 13.9286 48.2143 15.2679 48.2143 16.7857V38.5714C48.2143 40 47.4107 41.4286 46.1607 42.1429L27.0536 53.0357C26.4286 53.3929 25.7143 53.5714 25 53.5714C24.2857 53.5714 23.5714 53.3929 22.9464 53.0357L3.83929 42.1429C2.58929 41.4286 1.78571 40.0893 1.78571 38.5714V16.7857C1.78571 15.3571 2.58929 13.9286 3.83929 13.2143L22.9464 2.32143C23.5714 1.96429 24.2857 1.78571 25 1.78571ZM25 0C24.0179 0 22.9464 0.267857 22.0536 0.803571L2.94643 11.6964C1.16071 12.7679 0 14.7321 0 16.7857V38.5714C0 40.7143 1.16071 42.5893 2.94643 43.6607L22.0536 54.5536C22.9464 55.0893 23.9286 55.3571 25 55.3571C25.9821 55.3571 27.0536 55.0893 27.9464 54.5536L47.0536 43.6607C48.9286 42.5893 50 40.625 50 38.5714V16.7857C50 14.6429 48.8393 12.7679 47.0536 11.6964L27.9464 0.803571C27.0536 0.267857 25.9821 0 25 0Z" fill="#009982"/>
<path d="M41.8751 30.8928C41.5179 33.5714 39.8215 35.7143 37.5001 36.7857V34.7321C38.9287 33.8393 39.9108 32.4107 40.1786 30.625C40.5358 27.5 38.3929 24.7321 35.4465 24.1964C35.4465 23.9286 35.5358 23.6607 35.5358 23.3928C35.5358 19.375 32.2322 16.1607 28.2144 16.1607C25.0894 16.1607 22.4108 18.125 21.3394 20.8928C20.6251 20.0893 19.6429 19.5536 18.4822 19.5536C18.393 19.5536 18.3929 19.5536 18.3037 19.5536C16.518 19.6428 15.0894 20.9821 14.8215 22.6786C14.7322 23.125 14.8215 23.6607 14.9108 24.1071C11.8751 24.4643 9.55367 27.2321 9.91081 30.4464C10.268 33.3928 12.8572 35.5357 15.8929 35.5357H25.0001V37.3214H15.8037C11.7858 37.3214 8.48224 34.4643 8.03581 30.625C7.67867 27.0536 9.73224 23.9286 12.9465 22.6786C12.9465 22.5893 12.9465 22.5 12.9465 22.4107C13.3037 19.8214 15.4465 17.8571 18.0358 17.6786C18.1251 17.6786 18.2144 17.6786 18.3037 17.6786C19.1072 17.6786 19.8215 17.8571 20.5358 18.125C22.2322 15.7143 25.0001 14.2857 27.9465 14.2857C32.7679 14.2857 36.6965 18.0357 36.9644 22.7678C40.3572 24.1964 42.3215 27.4107 41.8751 30.8928Z" fill="#575756"/>
<path d="M31.2499 30.0893L26.7856 32.5893V37.5C26.7856 40.625 31.2499 42.1429 31.2499 42.1429C31.2499 42.1429 35.7142 40.625 35.7142 37.5V32.5893L31.2499 30.0893Z" fill="#575756"/>
</svg>
