<svg width="50" height="56" viewBox="0 0 50 56" fill="none" xmlns="http://www.w3.org/2000/svg">
<path d="M24.107 42.4107L9.82129 34.1964V22.4107L24.107 30.5357V42.4107ZM25.8927 42.4107L40.1784 34.1964V22.4107L25.8927 30.5357V42.4107ZM35.4463 18.4821V20.7142C35.4463 21.7857 34.107 22.5892 32.3213 22.5892C30.6249 22.5892 29.1963 21.6964 29.1963 20.7142V18.2142C29.1963 19.2857 30.5356 20.0892 32.3213 20.0892C34.0177 20.0892 35.4463 19.1964 35.4463 18.2142C35.4463 17.2321 34.107 16.3392 32.3213 16.3392C32.1427 16.3392 31.8749 16.3392 31.6963 16.3392L28.1249 14.2857V16.5178C28.1249 17.5892 26.7856 18.3928 24.9999 18.3928C23.3034 18.3928 21.8749 17.5 21.8749 16.5178V14.2857L18.2141 16.3392C18.0356 16.3392 17.7677 16.3392 17.5891 16.3392C15.8927 16.3392 14.4641 17.2321 14.4641 18.2142C14.4641 19.1964 15.8034 20.0892 17.5891 20.0892C19.3749 20.0892 20.7141 19.1964 20.7141 18.2142V20.7142C20.7141 21.7857 19.3749 22.5892 17.5891 22.5892C15.8034 22.5892 14.4641 21.6964 14.4641 20.7142V18.4821L10.4463 20.8035L24.9999 29.0178L39.4641 20.8035L35.4463 18.4821ZM28.1249 24.9107C28.1249 25.9821 26.7856 26.7857 24.9999 26.7857C23.3034 26.7857 21.8749 25.8928 21.8749 24.9107V22.4107C21.8749 23.4821 23.2141 24.2857 24.9999 24.2857C26.6963 24.2857 28.1249 23.3928 28.1249 22.4107V24.9107ZM24.9999 15.8928C26.6963 15.8928 28.1249 15 28.1249 14.0178C28.1249 12.9464 26.7856 12.1428 24.9999 12.1428C23.3034 12.1428 21.8749 13.0357 21.8749 14.0178C21.8749 15.0892 23.3034 15.8928 24.9999 15.8928Z" fill="#575756"/>
<path d="M25 1.78571C25.7143 1.78571 26.4286 1.96429 27.0536 2.32143L46.1607 13.2143C47.4107 13.9286 48.2143 15.2679 48.2143 16.7857V38.5714C48.2143 40 47.4107 41.4286 46.1607 42.1429L27.0536 53.0357C26.4286 53.3929 25.7143 53.5714 25 53.5714C24.2857 53.5714 23.5714 53.3929 22.9464 53.0357L3.83929 42.1429C2.58929 41.4286 1.78571 40.0893 1.78571 38.5714V16.7857C1.78571 15.3571 2.58929 13.9286 3.83929 13.2143L22.9464 2.32143C23.5714 1.96429 24.2857 1.78571 25 1.78571ZM25 0C24.0179 0 22.9464 0.267857 22.0536 0.803571L2.94643 11.6964C1.16071 12.7679 0 14.7321 0 16.7857V38.5714C0 40.7143 1.16071 42.5893 2.94643 43.6607L22.0536 54.5536C22.9464 55.0893 23.9286 55.3571 25 55.3571C25.9821 55.3571 27.0536 55.0893 27.9464 54.5536L47.0536 43.6607C48.9286 42.5893 50 40.625 50 38.5714V16.7857C50 14.6429 48.8393 12.7679 47.0536 11.6964L27.9464 0.803571C27.0536 0.267857 25.9821 0 25 0Z" fill="#009982"/>
</svg>
