<svg width="195" height="58" viewBox="0 0 195 58" fill="none" xmlns="http://www.w3.org/2000/svg">
<path d="M70.96 16H72.144V10.304L77.168 16H78.768L73.552 10.16V9.984L78.432 4.8H76.864L72.144 9.888V4.8H70.96V16ZM83.0823 8.096C81.1943 8.096 79.9783 9.104 79.8183 10.704H81.0182C81.1303 9.792 81.7863 9.216 83.0503 9.216C84.4263 9.216 84.9703 9.904 84.9703 10.816V11.472H82.2343C80.4583 11.472 79.4983 12.384 79.4983 13.856C79.4983 15.184 80.3943 16.192 82.2983 16.192C83.3063 16.192 84.2823 15.744 84.7943 15.184H84.9703V16H86.1383V10.752C86.1383 8.912 84.9223 8.096 83.0823 8.096ZM82.4583 15.12C81.4343 15.12 80.7143 14.704 80.7143 13.776C80.7143 12.944 81.2263 12.464 82.2823 12.464H84.9703V13.792C84.2983 14.704 83.4183 15.12 82.4583 15.12ZM90.8076 16.192C92.8236 16.192 93.8956 15.168 93.8956 13.728C93.8956 12.192 92.9676 11.664 91.5116 11.568L90.5356 11.488C89.5596 11.424 88.9996 11.12 88.9996 10.416C88.9996 9.584 89.7516 9.2 90.7436 9.2C91.7356 9.2 92.3756 9.632 92.4876 10.352H93.6716C93.5116 8.912 92.4556 8.096 90.7276 8.096C89.0316 8.096 87.8316 8.992 87.8316 10.448C87.8316 11.728 88.6476 12.384 90.1676 12.512L91.2876 12.608C92.0716 12.672 92.7276 12.864 92.7276 13.744C92.7276 14.496 92.2956 15.088 90.8236 15.088C89.5756 15.088 88.8556 14.48 88.7276 13.696H87.5276C87.6396 15.12 88.7916 16.192 90.8076 16.192ZM95.4273 19.52H96.5953V14.96C97.2673 15.824 98.3073 16.192 99.2833 16.192C101.043 16.192 102.947 14.976 102.947 12.128C102.947 9.328 101.059 8.096 99.4113 8.096C98.4353 8.096 97.3953 8.512 96.7713 9.392H96.5953V8.288H95.4273V19.52ZM99.1553 15.056C97.8433 15.056 96.5953 14.16 96.5953 12.144C96.5953 10.128 97.8433 9.232 99.1553 9.232C100.419 9.232 101.763 10.112 101.763 12.144C101.763 14.176 100.419 15.056 99.1553 15.056ZM108.041 16.192C109.897 16.192 111.081 15.136 111.481 13.584H110.297C109.977 14.416 109.337 15.072 108.041 15.072C106.601 15.072 105.577 14.208 105.449 12.496H111.593V11.6C111.593 9.584 110.169 8.096 108.025 8.096C105.657 8.096 104.265 9.888 104.265 12.176C104.265 14.48 105.689 16.192 108.041 16.192ZM105.481 11.488C105.657 10.016 106.697 9.2 108.025 9.2C109.641 9.2 110.441 10.288 110.425 11.488H105.481ZM113.162 16H114.33V11.712C114.33 10.256 114.954 9.344 116.298 9.344H117.434V8.176H116.41C115.418 8.176 114.858 8.656 114.506 9.36H114.33V8.288H113.162V16ZM121.558 16.192C123.574 16.192 124.646 15.168 124.646 13.728C124.646 12.192 123.718 11.664 122.262 11.568L121.286 11.488C120.31 11.424 119.75 11.12 119.75 10.416C119.75 9.584 120.502 9.2 121.494 9.2C122.486 9.2 123.126 9.632 123.238 10.352H124.422C124.262 8.912 123.206 8.096 121.478 8.096C119.782 8.096 118.582 8.992 118.582 10.448C118.582 11.728 119.398 12.384 120.918 12.512L122.038 12.608C122.822 12.672 123.478 12.864 123.478 13.744C123.478 14.496 123.046 15.088 121.574 15.088C120.326 15.088 119.606 14.48 119.478 13.696H118.278C118.39 15.12 119.542 16.192 121.558 16.192ZM132.385 16L128.705 12V11.824L132.225 8.288H130.753L127.345 11.712V4.48H126.177V16H127.345V12.096L130.865 16H132.385ZM133.905 19.52H135.233L140.417 8.288H139.105L136.945 12.944C136.881 13.088 136.817 13.264 136.737 13.456H136.561L136.337 12.944L134.209 8.288H132.881L136.017 15.008L133.905 19.52ZM70.96 35H72.144V23.8H70.96V35ZM74.0214 35H75.1894V30.664C75.1894 29.368 75.9254 28.264 77.4134 28.264C78.5014 28.264 79.4614 28.872 79.4614 30.344V35H80.6294V30.072C80.6294 28.088 79.3654 27.096 77.7334 27.096C76.5174 27.096 75.7174 27.656 75.3654 28.28H75.1894V27.288H74.0214V35ZM85.58 35H87.052V33.912H85.9C84.924 33.912 84.508 33.48 84.508 32.52V28.376H87.084V27.288H84.508V25.208H83.34V27.288H81.628V28.376H83.34V32.776C83.34 34.248 84.22 35 85.58 35ZM91.9789 35.192C93.8349 35.192 95.0189 34.136 95.4189 32.584H94.2349C93.9149 33.416 93.2749 34.072 91.9789 34.072C90.5389 34.072 89.5149 33.208 89.3869 31.496H95.5309V30.6C95.5309 28.584 94.1069 27.096 91.9629 27.096C89.5949 27.096 88.2029 28.888 88.2029 31.176C88.2029 33.48 89.6269 35.192 91.9789 35.192ZM89.4189 30.488C89.5949 29.016 90.6349 28.2 91.9629 28.2C93.5789 28.2 94.3789 29.288 94.3629 30.488H89.4189ZM99.4675 38.712H100.876C103.116 38.712 103.948 37.544 103.948 36.2C103.948 34.552 102.812 33.816 101.388 33.816H98.6355C98.2195 33.816 98.0915 33.56 98.0915 33.368C98.0915 33.144 98.3155 32.888 98.4435 32.728L98.5875 32.568C99.0355 32.776 99.5475 32.904 100.14 32.904C102.156 32.904 103.292 31.576 103.292 30.024C103.292 29.384 103.1 28.792 102.748 28.36H104.572V27.288H101.308C100.956 27.176 100.556 27.112 100.14 27.112C98.1235 27.112 97.0035 28.456 97.0035 30.024C97.0035 30.76 97.2595 31.448 97.7395 31.96L97.5315 32.2C97.2435 32.536 96.8915 32.936 96.8915 33.528C96.8915 33.992 97.1155 34.36 97.5315 34.568V34.76C96.9395 35.176 96.5875 35.768 96.5875 36.504C96.5875 37.576 97.1475 38.712 99.4675 38.712ZM100.14 31.8C99.1955 31.8 98.1875 31.272 98.1875 30.008C98.1875 28.744 99.1955 28.216 100.14 28.216C101.1 28.216 102.108 28.744 102.108 30.008C102.108 31.272 101.1 31.8 100.14 31.8ZM99.5475 37.608C98.2995 37.608 97.7875 37.064 97.7875 36.312C97.7875 35.784 98.0755 35.256 98.6515 34.904H101.26C102.268 34.904 102.764 35.4 102.764 36.2C102.764 37.256 101.74 37.608 101.004 37.608H99.5475ZM105.803 35H106.971V30.712C106.971 29.256 107.595 28.344 108.939 28.344H110.075V27.176H109.051C108.059 27.176 107.499 27.656 107.147 28.36H106.971V27.288H105.803V35ZM114.364 27.096C112.476 27.096 111.26 28.104 111.1 29.704H112.299C112.412 28.792 113.068 28.216 114.332 28.216C115.708 28.216 116.252 28.904 116.252 29.816V30.472H113.516C111.74 30.472 110.78 31.384 110.78 32.856C110.78 34.184 111.676 35.192 113.58 35.192C114.588 35.192 115.564 34.744 116.076 34.184H116.252V35H117.42V29.752C117.42 27.912 116.204 27.096 114.364 27.096ZM113.74 34.12C112.716 34.12 111.996 33.704 111.996 32.776C111.996 31.944 112.508 31.464 113.564 31.464H116.252V32.792C115.58 33.704 114.7 34.12 113.74 34.12ZM122.377 35H123.849V33.912H122.697C121.721 33.912 121.305 33.48 121.305 32.52V28.376H123.881V27.288H121.305V25.208H120.137V27.288H118.425V28.376H120.137V32.776C120.137 34.248 121.017 35 122.377 35ZM128.776 35.192C130.632 35.192 131.816 34.136 132.216 32.584H131.032C130.712 33.416 130.072 34.072 128.776 34.072C127.336 34.072 126.312 33.208 126.184 31.496H132.328V30.6C132.328 28.584 130.904 27.096 128.76 27.096C126.392 27.096 125 28.888 125 31.176C125 33.48 126.424 35.192 128.776 35.192ZM126.216 30.488C126.392 29.016 127.432 28.2 128.76 28.2C130.376 28.2 131.176 29.288 131.16 30.488H126.216ZM137.16 35.192C138.152 35.192 139.192 34.776 139.8 33.896H139.992V35H141.16V23.48H139.992V28.328C139.32 27.464 138.28 27.096 137.304 27.096C135.544 27.096 133.64 28.312 133.64 31.16C133.64 33.96 135.528 35.192 137.16 35.192ZM137.432 34.056C136.152 34.056 134.808 33.176 134.808 31.144C134.808 29.112 136.152 28.232 137.432 28.232C138.728 28.232 139.992 29.128 139.992 31.144C139.992 33.16 138.728 34.056 137.432 34.056ZM78.304 43.856V42.8H70.96V54H78.304V52.944H72.144V48.912H77.984V47.84H72.144V43.856H78.304ZM80.0214 54H81.1894V49.664C81.1894 48.368 81.9254 47.264 83.4134 47.264C84.5014 47.264 85.4614 47.872 85.4614 49.344V54H86.6294V49.072C86.6294 47.088 85.3654 46.096 83.7334 46.096C82.5174 46.096 81.7174 46.656 81.3654 47.28H81.1894V46.288H80.0214V54ZM91.676 54.192C92.668 54.192 93.708 53.776 94.316 52.896H94.508V54H95.676V42.48H94.508V47.328C93.836 46.464 92.796 46.096 91.82 46.096C90.06 46.096 88.156 47.312 88.156 50.16C88.156 52.96 90.044 54.192 91.676 54.192ZM91.948 53.056C90.668 53.056 89.324 52.176 89.324 50.144C89.324 48.112 90.668 47.232 91.948 47.232C93.244 47.232 94.508 48.128 94.508 50.144C94.508 52.16 93.244 53.056 91.948 53.056ZM97.4741 57.52H98.6421V52.96C99.3141 53.824 100.354 54.192 101.33 54.192C103.09 54.192 104.994 52.976 104.994 50.128C104.994 47.328 103.106 46.096 101.458 46.096C100.482 46.096 99.4421 46.512 98.8181 47.392H98.6421V46.288H97.4741V57.52ZM101.202 53.056C99.8901 53.056 98.6421 52.16 98.6421 50.144C98.6421 48.128 99.8901 47.232 101.202 47.232C102.466 47.232 103.81 48.112 103.81 50.144C103.81 52.176 102.466 53.056 101.202 53.056ZM110.248 54.192C112.648 54.192 114.168 52.368 114.168 50.144C114.168 47.92 112.648 46.096 110.248 46.096C107.832 46.096 106.312 47.92 106.312 50.144C106.312 52.368 107.832 54.192 110.248 54.192ZM110.248 53.056C108.84 53.056 107.512 52.032 107.512 50.144C107.512 48.256 108.84 47.232 110.248 47.232C111.64 47.232 112.968 48.256 112.968 50.144C112.968 52.032 111.64 53.056 110.248 53.056ZM115.676 44.608H117.004V43.28H115.676V44.608ZM115.756 54H116.924V46.288H115.756V54ZM118.756 54H119.924V49.664C119.924 48.368 120.66 47.264 122.148 47.264C123.236 47.264 124.196 47.872 124.196 49.344V54H125.364V49.072C125.364 47.088 124.1 46.096 122.468 46.096C121.252 46.096 120.452 46.656 120.1 47.28H119.924V46.288H118.756V54ZM130.314 54H131.786V52.912H130.634C129.658 52.912 129.242 52.48 129.242 51.52V47.376H131.818V46.288H129.242V44.208H128.074V46.288H126.362V47.376H128.074V51.776C128.074 53.248 128.954 54 130.314 54ZM141.213 54.192C143.581 54.192 145.341 52.784 145.341 50.72C145.341 48.56 143.933 47.808 142.141 47.664L140.829 47.568C139.325 47.456 138.317 46.912 138.317 45.76C138.317 44.624 139.197 43.76 141.037 43.76C142.909 43.76 143.693 44.688 143.853 45.84H145.069C144.845 43.776 143.405 42.608 141.037 42.608C138.877 42.608 137.101 43.776 137.101 45.84C137.101 47.696 138.621 48.576 140.445 48.704L141.949 48.832C143.277 48.928 144.141 49.488 144.141 50.784C144.141 51.888 143.357 53.04 141.213 53.04C139.069 53.04 138.141 51.872 137.981 50.64H136.781C136.909 52.672 138.413 54.192 141.213 54.192ZM150.541 54.192C152.397 54.192 153.581 53.136 153.981 51.584H152.797C152.477 52.416 151.837 53.072 150.541 53.072C149.101 53.072 148.077 52.208 147.949 50.496H154.093V49.6C154.093 47.584 152.669 46.096 150.525 46.096C148.157 46.096 146.765 47.888 146.765 50.176C146.765 52.48 148.189 54.192 150.541 54.192ZM147.981 49.488C148.157 48.016 149.197 47.2 150.525 47.2C152.141 47.2 152.941 48.288 152.925 49.488H147.981ZM159.214 54.192C161.022 54.192 162.302 53.136 162.606 51.536H161.438C161.182 52.416 160.446 53.072 159.214 53.072C157.774 53.072 156.574 52.08 156.574 50.144C156.574 48.304 157.678 47.216 159.214 47.216C160.446 47.216 161.182 47.872 161.438 48.752H162.606C162.302 47.152 161.022 46.096 159.214 46.096C156.926 46.096 155.406 47.808 155.406 50.144C155.406 52.48 156.926 54.192 159.214 54.192ZM167.041 54.192C168.257 54.192 169.073 53.632 169.409 53.008H169.601V54H170.769V46.288H169.601V50.624C169.601 51.92 168.849 53.024 167.361 53.024C166.273 53.024 165.313 52.416 165.313 50.944V46.288H164.145V51.216C164.145 53.2 165.425 54.192 167.041 54.192ZM172.584 54H173.752V49.712C173.752 48.256 174.376 47.344 175.72 47.344H176.856V46.176H175.832C174.84 46.176 174.28 46.656 173.928 47.36H173.752V46.288H172.584V54ZM178.036 44.608H179.364V43.28H178.036V44.608ZM178.116 54H179.284V46.288H178.116V54ZM184.283 54H185.755V52.912H184.603C183.627 52.912 183.211 52.48 183.211 51.52V47.376H185.787V46.288H183.211V44.208H182.043V46.288H180.331V47.376H182.043V51.776C182.043 53.248 182.923 54 184.283 54ZM187.859 57.52H189.187L194.371 46.288H193.059L190.899 50.944C190.835 51.088 190.771 51.264 190.691 51.456H190.515L190.291 50.944L188.163 46.288H186.835L189.971 53.008L187.859 57.52Z" fill="#1D1D1B"/>
<path d="M24.107 43.4107L9.82129 35.1964V23.4107L24.107 31.5357V43.4107ZM25.8927 43.4107L40.1784 35.1964V23.4107L25.8927 31.5357V43.4107ZM35.4463 19.4821V21.7142C35.4463 22.7857 34.107 23.5892 32.3213 23.5892C30.6249 23.5892 29.1963 22.6964 29.1963 21.7142V19.2142C29.1963 20.2857 30.5356 21.0892 32.3213 21.0892C34.0177 21.0892 35.4463 20.1964 35.4463 19.2142C35.4463 18.2321 34.107 17.3392 32.3213 17.3392C32.1427 17.3392 31.8749 17.3392 31.6963 17.3392L28.1249 15.2857V17.5178C28.1249 18.5892 26.7856 19.3928 24.9999 19.3928C23.3034 19.3928 21.8749 18.5 21.8749 17.5178V15.2857L18.2141 17.3392C18.0356 17.3392 17.7677 17.3392 17.5891 17.3392C15.8927 17.3392 14.4641 18.2321 14.4641 19.2142C14.4641 20.1964 15.8034 21.0892 17.5891 21.0892C19.3749 21.0892 20.7141 20.1964 20.7141 19.2142V21.7142C20.7141 22.7857 19.3749 23.5892 17.5891 23.5892C15.8034 23.5892 14.4641 22.6964 14.4641 21.7142V19.4821L10.4463 21.8035L24.9999 30.0178L39.4641 21.8035L35.4463 19.4821ZM28.1249 25.9107C28.1249 26.9821 26.7856 27.7857 24.9999 27.7857C23.3034 27.7857 21.8749 26.8928 21.8749 25.9107V23.4107C21.8749 24.4821 23.2141 25.2857 24.9999 25.2857C26.6963 25.2857 28.1249 24.3928 28.1249 23.4107V25.9107ZM24.9999 16.8928C26.6963 16.8928 28.1249 16 28.1249 15.0178C28.1249 13.9464 26.7856 13.1428 24.9999 13.1428C23.3034 13.1428 21.8749 14.0357 21.8749 15.0178C21.8749 16.0892 23.3034 16.8928 24.9999 16.8928Z" fill="#575756"/>
<path d="M25 2.78571C25.7143 2.78571 26.4286 2.96429 27.0536 3.32143L46.1607 14.2143C47.4107 14.9286 48.2143 16.2679 48.2143 17.7857V39.5714C48.2143 41 47.4107 42.4286 46.1607 43.1429L27.0536 54.0357C26.4286 54.3929 25.7143 54.5714 25 54.5714C24.2857 54.5714 23.5714 54.3929 22.9464 54.0357L3.83929 43.1429C2.58929 42.4286 1.78571 41.0893 1.78571 39.5714V17.7857C1.78571 16.3571 2.58929 14.9286 3.83929 14.2143L22.9464 3.32143C23.5714 2.96429 24.2857 2.78571 25 2.78571ZM25 1C24.0179 1 22.9464 1.26786 22.0536 1.80357L2.94643 12.6964C1.16071 13.7679 0 15.7321 0 17.7857V39.5714C0 41.7143 1.16071 43.5893 2.94643 44.6607L22.0536 55.5536C22.9464 56.0893 23.9286 56.3571 25 56.3571C25.9821 56.3571 27.0536 56.0893 27.9464 55.5536L47.0536 44.6607C48.9286 43.5893 50 41.625 50 39.5714V17.7857C50 15.6429 48.8393 13.7679 47.0536 12.6964L27.9464 1.80357C27.0536 1.26786 25.9821 1 25 1Z" fill="#009982"/>
</svg>
