<svg width="24" height="24" viewBox="0 0 24 24" fill="none" xmlns="http://www.w3.org/2000/svg">
<path d="M8.88206 19.2C15.2236 19.2 18.6922 14.1204 18.6922 9.71849C18.6922 9.57583 18.6922 9.43318 18.6816 9.28543C19.3561 8.81295 19.938 8.22809 20.4001 7.55827C19.7708 7.82937 19.1024 8.00632 18.418 8.08304C19.1392 7.66705 19.6789 7.0114 19.9362 6.23871C19.2597 6.62651 18.52 6.90044 17.7486 7.04879C17.2286 6.51496 16.541 6.16165 15.7923 6.04355C15.0436 5.92545 14.2755 6.04913 13.6069 6.39545C12.9382 6.74178 12.4063 7.29144 12.0935 7.95938C11.7806 8.62732 11.7043 9.3763 11.8762 10.0904C10.5056 10.0242 9.16467 9.6802 7.9405 9.08071C6.71632 8.48123 5.63624 7.63966 4.77035 6.61063C4.32906 7.3438 4.19354 8.21198 4.39137 9.03835C4.58921 9.86472 5.10553 10.5871 5.83518 11.0584C5.28607 11.0433 4.74891 10.9 4.26957 10.6407V10.6814C4.27075 11.4507 4.54685 12.1959 5.05115 12.791C5.55546 13.3861 6.257 13.7945 7.03706 13.9472C6.52992 14.0803 5.99799 14.0995 5.48199 14.0033C5.70256 14.6651 6.13154 15.2438 6.709 15.6585C7.28646 16.0732 7.98354 16.3032 8.70283 16.3163C7.48195 17.243 5.97478 17.7471 4.42244 17.748C4.14764 17.7479 3.87308 17.7326 3.6001 17.7021C5.1754 18.6813 7.00911 19.2013 8.88206 19.2Z" fill="#CCCCCC"/>
</svg>
