<svg width="24" height="24" viewBox="0 0 24 24" fill="none" xmlns="http://www.w3.org/2000/svg">
<path fill-rule="evenodd" clip-rule="evenodd" d="M17.492 7.5161C17.492 8.07287 17.0406 8.52411 16.484 8.52411C15.9274 8.52411 15.476 8.07287 15.476 7.5161C15.476 6.95934 15.9274 6.5081 16.484 6.5081C17.0408 6.5081 17.492 6.95934 17.492 7.5161ZM12.0001 14.8C10.4537 14.8 9.20014 13.5464 9.20014 12C9.20014 10.4536 10.4537 9.20004 12.0001 9.20004C13.5465 9.20004 14.8001 10.4536 14.8001 12C14.8001 13.5464 13.5465 14.8 12.0001 14.8ZM12.0001 7.68647C9.61778 7.68647 7.68657 9.61768 7.68657 12C7.68657 14.3823 9.61778 16.3135 12.0001 16.3135C14.3824 16.3135 16.3136 14.3823 16.3136 12C16.3136 9.61768 14.3824 7.68647 12.0001 7.68647ZM12.0001 5.11357C14.243 5.11357 14.5087 5.1221 15.3944 5.16253C16.2134 5.19994 16.6582 5.3367 16.9541 5.4518C17.3462 5.60419 17.626 5.78623 17.92 6.08023C18.214 6.3741 18.396 6.65392 18.5484 7.0461C18.6634 7.34207 18.8003 7.78687 18.8377 8.60587C18.8781 9.49168 18.8867 9.75733 18.8867 12.0003C18.8867 14.2432 18.8781 14.5088 18.8377 15.3945C18.8003 16.2135 18.6635 16.6583 18.5484 16.9543C18.396 17.3463 18.214 17.6262 17.92 17.9202C17.6261 18.2142 17.3463 18.3962 16.9541 18.5486C16.6582 18.6636 16.2134 18.8005 15.3944 18.8379C14.5087 18.8783 14.243 18.8868 12.0001 18.8868C9.75704 18.8868 9.49139 18.8783 8.60571 18.8379C7.78671 18.8005 7.3419 18.6637 7.04594 18.5486C6.65389 18.3962 6.37407 18.2142 6.08007 17.9202C5.7862 17.6263 5.60402 17.3465 5.45164 16.9543C5.33667 16.6583 5.19977 16.2135 5.16237 15.3945C5.12194 14.5087 5.11341 14.2431 5.11341 12.0003C5.11341 9.75733 5.12194 9.49168 5.16237 8.60587C5.19977 7.78687 5.33654 7.34207 5.45164 7.0461C5.60402 6.65406 5.78607 6.37423 6.08007 6.08023C6.37394 5.78623 6.65376 5.60419 7.04594 5.4518C7.3419 5.33683 7.78671 5.19994 8.60571 5.16253C9.49152 5.1221 9.75717 5.11357 12.0001 5.11357ZM12.0001 3.6C9.71884 3.6 9.43272 3.60971 8.5368 3.65053C7.64273 3.69135 7.03202 3.83336 6.49784 4.041C5.9454 4.25559 5.47697 4.5429 5.00999 5.00989C4.543 5.47687 4.25569 5.9453 4.0411 6.49774C3.83346 7.03205 3.69145 7.64263 3.65063 8.53671C3.60981 9.43262 3.6001 9.71874 3.6001 12C3.6001 14.2813 3.60981 14.5674 3.65063 15.4633C3.69145 16.3574 3.83346 16.9679 4.0411 17.5023C4.25569 18.0547 4.543 18.5231 5.00999 18.9901C5.47697 19.4571 5.9454 19.7443 6.49784 19.959C7.03215 20.1666 7.64273 20.3086 8.5368 20.3495C9.43272 20.3903 9.71884 20.4 12.0001 20.4C14.2814 20.4 14.5675 20.3903 15.4634 20.3495C16.3575 20.3086 16.968 20.1666 17.5024 19.959C18.0548 19.7443 18.5232 19.4571 18.9902 18.9901C19.4572 18.5231 19.7444 18.0547 19.9591 17.5023C20.1667 16.9679 20.3087 16.3574 20.3496 15.4633C20.3904 14.5674 20.4001 14.2813 20.4001 12C20.4001 9.71874 20.3904 9.43262 20.3496 8.53671C20.3087 7.64263 20.1667 7.03205 19.9591 6.49774C19.7444 5.9453 19.4572 5.47687 18.9902 5.00989C18.5232 4.5429 18.0548 4.25572 17.5024 4.041C16.968 3.83336 16.3575 3.69135 15.4634 3.65053C14.5675 3.60971 14.2814 3.6 12.0001 3.6Z" fill="#CCCCCC"/>
</svg>
