<svg width="50" height="56" viewBox="0 0 50 56" fill="none" xmlns="http://www.w3.org/2000/svg">
<path d="M25.0001 22.5893C22.143 22.5893 19.8215 24.9107 19.8215 27.7679C19.8215 30.625 22.143 32.9464 25.0001 32.9464C27.8572 32.9464 30.1787 30.625 30.1787 27.7679C30.1787 24.8214 27.8572 22.5893 25.0001 22.5893ZM25.0001 31.5179C22.9465 31.5179 21.1608 29.8214 21.1608 27.6786C21.1608 25.625 22.8572 23.8393 25.0001 23.8393C27.0537 23.8393 28.8394 25.5357 28.8394 27.6786C28.8394 29.7322 27.0537 31.5179 25.0001 31.5179Z" fill="#575756"/>
<path d="M37.5 31.7857C35.1785 31.7857 32.1428 34.9107 32.1428 34.9107C32.1428 34.9107 35.1785 38.0357 37.5 38.0357C39.8214 38.0357 42.8571 34.9107 42.8571 34.9107C42.8571 34.9107 39.8214 31.7857 37.5 31.7857ZM37.5 37.4107C36.25 37.4107 35.1785 36.3393 35.1785 35C35.1785 33.6607 36.25 32.5893 37.5 32.5893C38.75 32.5893 39.8214 33.6607 39.8214 35C39.8214 36.3393 38.8393 37.4107 37.5 37.4107Z" fill="#575756"/>
<path d="M38.4821 34.9107C38.4821 35.4464 38.0357 35.8929 37.5 35.8929C36.9642 35.8929 36.5178 35.4464 36.5178 34.9107C36.5178 34.375 36.9642 33.9286 37.5 33.9286C38.0357 33.9286 38.4821 34.375 38.4821 34.9107Z" fill="#575756"/>
<path d="M25.0001 25.8928C25.9822 25.8928 26.7858 26.6964 26.7858 27.6785C26.7858 28.6607 25.9822 29.4643 25.0001 29.4643C24.0179 29.4643 23.2144 28.6607 23.2144 27.6785C23.2144 26.6964 24.0179 25.8928 25.0001 25.8928Z" fill="#575756"/>
<path d="M29.0179 25.8036L36.7858 21.3393L36.3394 20.5357L28.5715 25C28.7501 25.2678 28.9286 25.5357 29.0179 25.8036ZM21.3394 30.2678C21.1608 30 20.9822 29.7321 20.8929 29.4643L14.4644 33.125L14.9108 33.9286L21.3394 30.2678Z" fill="#575756"/>
<path d="M9.97255 33.1938L9.52612 33.967L14.1654 36.6456L14.6118 35.8723L9.97255 33.1938Z" fill="#575756"/>
<path d="M12.0535 31.7857C10.357 31.7857 8.92847 33.2143 8.92847 34.9107C8.92847 36.6071 10.357 38.0357 12.0535 38.0357C13.7499 38.0357 15.1785 36.6071 15.1785 34.9107C15.1785 33.2143 13.7499 31.7857 12.0535 31.7857ZM12.0535 37.1429C10.8035 37.1429 9.82132 36.1607 9.82132 34.9107C9.82132 33.6607 10.8035 32.6786 12.0535 32.6786C13.3035 32.6786 14.2856 33.6607 14.2856 34.9107C14.2856 36.1607 13.3035 37.1429 12.0535 37.1429Z" fill="#575756"/>
<path d="M28.6607 30.2679L35.0893 33.9286L35.5357 33.125L29.1071 29.4643C28.9285 29.7321 28.8392 30 28.6607 30.2679ZM20.9821 25.8036C21.0714 25.5357 21.25 25.2679 21.4285 25L13.8393 20.625L13.3928 21.4286L20.9821 25.8036Z" fill="#575756"/>
<path d="M25.4463 32.5893H24.5535V42.4107H25.4463V32.5893Z" fill="#575756"/>
<path d="M25.4463 12.9464H24.5535V15.1786H25.4463V12.9464Z" fill="#575756"/>
<path d="M25.4463 20.5357H24.5535V23.2143H25.4463V20.5357Z" fill="#575756"/>
<path d="M26.5149 15.7106L22.9163 19.3092L23.5476 19.9405L27.1462 16.3419L26.5149 15.7106Z" fill="#575756"/>
<path d="M23.5476 15.7738L22.9163 16.4052L26.5149 20.0038L27.1462 19.3724L23.5476 15.7738Z" fill="#575756"/>
<path d="M25.0001 41.9643C24.0179 41.9643 23.2144 42.7679 23.2144 43.75C23.2144 44.7322 24.0179 45.5357 25.0001 45.5357C25.9822 45.5357 26.7858 44.7322 26.7858 43.75C26.7858 42.7679 25.9822 41.9643 25.0001 41.9643ZM25.0001 44.6429C24.4644 44.6429 24.1072 44.2857 24.1072 43.75C24.1072 43.2143 24.4644 42.8572 25.0001 42.8572C25.5358 42.8572 25.8929 43.2143 25.8929 43.75C25.8929 44.2857 25.5358 44.6429 25.0001 44.6429Z" fill="#575756"/>
<path d="M37.9465 17.8572C36.6965 17.8572 35.7144 18.8393 35.7144 20.0893C35.7144 21.3393 36.6965 22.3215 37.9465 22.3215C39.1965 22.3215 40.1786 21.3393 40.1786 20.0893C40.1786 18.8393 39.1965 17.8572 37.9465 17.8572ZM37.9465 21.4286C37.2322 21.4286 36.6072 20.8036 36.6072 20.0893C36.6072 19.375 37.2322 18.75 37.9465 18.75C38.6608 18.75 39.2858 19.375 39.2858 20.0893C39.2858 20.8036 38.6608 21.4286 37.9465 21.4286Z" fill="#575756"/>
<path d="M12.0537 17.8572C10.8037 17.8572 9.82153 18.8393 9.82153 20.0893C9.82153 21.3393 10.8037 22.3215 12.0537 22.3215C13.3037 22.3215 14.2858 21.3393 14.2858 20.0893C14.2858 18.8393 13.3037 17.8572 12.0537 17.8572ZM12.0537 21.4286C11.3394 21.4286 10.7144 20.8036 10.7144 20.0893C10.7144 19.375 11.3394 18.75 12.0537 18.75C12.768 18.75 13.393 19.375 13.393 20.0893C13.393 20.8036 12.768 21.4286 12.0537 21.4286Z" fill="#575756"/>
<path d="M25.0001 9.82141C24.0179 9.82141 23.2144 10.625 23.2144 11.6071C23.2144 12.5893 24.0179 13.3928 25.0001 13.3928C25.9822 13.3928 26.7858 12.5893 26.7858 11.6071C26.7858 10.625 25.9822 9.82141 25.0001 9.82141ZM25.0001 12.5C24.4644 12.5 24.1072 12.1428 24.1072 11.6071C24.1072 11.0714 24.4644 10.7143 25.0001 10.7143C25.5358 10.7143 25.8929 11.0714 25.8929 11.6071C25.8929 12.1428 25.5358 12.5 25.0001 12.5Z" fill="#575756"/>
<path d="M25 1.78571C25.7143 1.78571 26.4286 1.96429 27.0536 2.32143L46.1607 13.2143C47.4107 13.9286 48.2143 15.2679 48.2143 16.7857V38.5714C48.2143 40 47.4107 41.4286 46.1607 42.1429L27.0536 53.0357C26.4286 53.3929 25.7143 53.5714 25 53.5714C24.2857 53.5714 23.5714 53.3929 22.9464 53.0357L3.83929 42.1429C2.58929 41.4286 1.78571 40.0893 1.78571 38.5714V16.7857C1.78571 15.3571 2.58929 13.9286 3.83929 13.2143L22.9464 2.32143C23.5714 1.96429 24.2857 1.78571 25 1.78571ZM25 0C24.0179 0 22.9464 0.267857 22.0536 0.803571L2.94643 11.6964C1.16071 12.7679 0 14.7321 0 16.7857V38.5714C0 40.7143 1.16071 42.5893 2.94643 43.6607L22.0536 54.5536C22.9464 55.0893 23.9286 55.3571 25 55.3571C25.9821 55.3571 27.0536 55.0893 27.9464 54.5536L47.0536 43.6607C48.9286 42.5893 50 40.625 50 38.5714V16.7857C50 14.6429 48.8393 12.7679 47.0536 11.6964L27.9464 0.803571C27.0536 0.267857 25.9821 0 25 0Z" fill="#009982"/>
</svg>
