<svg width="24" height="24" viewBox="0 0 24 24" fill="none" xmlns="http://www.w3.org/2000/svg">
<path d="M5.05239 9.5811H8.28785V19.1989H5.05239V9.5811ZM6.67613 4.8C7.04724 4.8 7.41001 4.90173 7.71857 5.09233C8.02713 5.28292 8.26762 5.55382 8.40964 5.87076C8.55165 6.18771 8.58881 6.53646 8.51641 6.87293C8.44401 7.2094 8.26531 7.51846 8.0029 7.76104C7.74049 8.00362 7.40616 8.16882 7.04219 8.23575C6.67822 8.30268 6.30095 8.26833 5.95809 8.13704C5.61524 8.00576 5.3222 7.78344 5.11602 7.4982C4.90985 7.21295 4.7998 6.8776 4.7998 6.53454C4.80044 6.07469 4.99833 5.63385 5.35007 5.30869C5.70181 4.98353 6.1787 4.80059 6.67613 4.8Z" fill="#AEAEAE"/>
<path d="M10.3205 9.58102H13.4177V10.8997H13.4598C13.8928 10.1436 14.9452 9.34864 16.5208 9.34864C19.7924 9.34864 20.3998 11.3389 20.3998 13.9296V19.1999H17.1703V14.5245C17.1703 13.407 17.1523 11.9727 15.4924 11.9727C13.8086 11.9727 13.556 13.1902 13.556 14.4411V19.1999H10.3265V9.58213L10.3205 9.58102Z" fill="#AEAEAE"/>
</svg>
